<svg id="Layer_1" xmlns="http://www.w3.org/2000/svg" viewBox="0 0 270 56"><style>.st1{enable-background:new}.st2{fill:#fff}</style><path d="M0 0h270v56H0V0z" fill="none"/><g class="st1"><path class="st2" d="M58.7 18.6c0 .7-.1 1.4-.3 2-.2.6-.5 1.1-.8 1.5-.4.4-.8.8-1.4 1-.6.2-1.2.4-2 .4-.3 0-.7 0-1-.1s-.7-.1-1-.2l.2-1.8c0-.2.1-.3.2-.4.1-.1.3-.1.5-.1h.9c.3 0 .6 0 .8-.1.2-.1.4-.2.5-.4.1-.2.3-.4.3-.7.1-.3.1-.7.1-1.1v-8.3h3v8.3zm8.6 2.4c.4 0 .8-.1 1.1-.2.3-.1.6-.3.8-.6.2-.3.4-.6.5-.9.1-.4.2-.8.2-1.2v-7.8h3v7.8c0 .8-.1 1.5-.4 2.2-.3.7-.6 1.3-1.1 1.7-.5.5-1.1.9-1.8 1.1-.7.3-1.5.4-2.3.4-.9 0-1.7-.1-2.4-.4-.7-.3-1.3-.6-1.8-1.1s-.9-1.1-1.1-1.7c-.3-.7-.4-1.4-.4-2.2v-7.8h3v7.8c0 .5.1.9.2 1.2.1.4.3.7.5.9.2.2.5.5.8.6.3.1.8.2 1.2.2zm15.9-8c-.1.1-.2.3-.3.3s-.2.1-.4.1c-.1 0-.3 0-.4-.1-.2-.1-.3-.2-.5-.3s-.4-.2-.7-.3-.6-.2-.9-.2c-.6 0-1 .1-1.3.4-.3.2-.4.6-.4 1 0 .3.1.5.3.7.2.2.4.3.7.5l.9.3c.4.1.7.2 1.1.4.4.1.7.3 1.1.5s.7.4.9.7c.3.3.5.6.7 1 .2.4.3.9.3 1.4 0 .6-.1 1.2-.3 1.7s-.5 1-.9 1.4-.9.7-1.5.9c-.6.2-1.2.3-2 .3-.4 0-.8 0-1.2-.1-.4-.1-.8-.2-1.2-.4-.4-.2-.8-.3-1.1-.5-.3-.2-.7-.4-.9-.7l.9-1.4.3-.3c.1-.1.2-.1.4-.1s.4.1.5.2c.2.1.4.2.6.4.2.1.5.3.8.4s.7.2 1.1.2c.6 0 1-.1 1.3-.4s.5-.6.5-1.2c0-.3-.1-.6-.3-.7-.2-.2-.4-.4-.7-.5l-.9-.3c-.3-.1-.7-.2-1.1-.3-.4-.1-.7-.3-1.1-.4-.3-.2-.7-.4-.9-.7s-.5-.6-.7-1-.3-.9-.3-1.5c0-.5.1-1 .3-1.4.2-.5.5-.9.9-1.3.2-.7.6-1 1.2-1.2.6-.2 1.2-.3 1.9-.3.4 0 .8 0 1.2.1.4.1.7.2 1.1.3.3.1.7.3 1 .4.3.2.6.4.8.6l-.8 1.4zm12.9-2.7v2.4h-3.7v10.7h-3V12.7h-3.7v-2.4h10.4zm14.1 2.7c-.1.1-.2.3-.3.3s-.3.1-.4.1-.3 0-.4-.1c-.2-.1-.3-.2-.5-.3s-.4-.2-.7-.3-.6-.1-.9-.1c-.6 0-1 .1-1.3.4-.3.2-.4.6-.4 1 0 .3.1.5.3.7.2.2.4.3.7.5l.9.3c.4.1.7.2 1.1.4.4.1.7.3 1.1.5s.7.4.9.7c.3.3.5.6.7 1 .2.4.3.9.3 1.4 0 .6-.1 1.2-.3 1.7s-.5 1-.9 1.4-.9.7-1.5.9c-.6.2-1.2.3-2 .3-.4 0-.8 0-1.2-.1-.4-.1-.8-.2-1.2-.4-.4-.2-.8-.3-1.1-.5-.3-.2-.7-.4-.9-.7l.9-1.4.3-.3c.1-.1.2-.1.4-.1s.4.1.5.2c.2.1.4.2.6.4.2.1.5.3.8.4.3.1.7.2 1.1.2.6 0 1-.1 1.3-.4s.5-.6.5-1.2c0-.3-.1-.6-.3-.7-.2-.2-.4-.4-.7-.5l-.9-.3c-.3-.1-.7-.2-1.1-.3s-.7-.3-1.1-.4c-.3-.2-.7-.4-.9-.7-.2-.3-.5-.6-.7-1-.2-.4-.3-.9-.3-1.5 0-.5.1-1 .3-1.4.2-.5.5-.9.9-1.3s.9-.7 1.4-.9c.6-.2 1.2-.3 1.9-.3.4 0 .8 0 1.2.1.4.1.7.2 1.1.3.3.1.7.3 1 .4.3.2.6.4.8.6l-1 1zm16.3 3.8c0 .9-.2 1.8-.5 2.6s-.8 1.5-1.4 2.1-1.3 1.1-2.1 1.4-1.8.5-2.8.5-1.9-.2-2.8-.5c-.8-.3-1.6-.8-2.2-1.4s-1.1-1.3-1.4-2.1-.5-1.7-.5-2.6c0-.9.2-1.8.5-2.6s.8-1.5 1.4-2.1c.6-.6 1.3-1.1 2.2-1.4.8-.3 1.8-.5 2.8-.5s1.9.2 2.8.5 1.6.8 2.1 1.4c.6.6 1.1 1.3 1.4 2.1.4.8.5 1.7.5 2.6zm-3.1 0c0-.6-.1-1.2-.3-1.8-.2-.5-.4-1-.7-1.3s-.7-.6-1.2-.8-1-.3-1.6-.3-1.1.1-1.6.3-.7.5-1 .9-.6.8-.7 1.3c-.2.5-.3 1.1-.3 1.8s.1 1.2.3 1.8c.2.5.4 1 .7 1.3.3.4.7.6 1.2.8.5.2 1 .3 1.6.3s1.1-.1 1.6-.3c.5-.2.8-.5 1.2-.8.3-.4.6-.8.7-1.3 0-.6.1-1.2.1-1.9zm12.6 1.3c.1.2.2.5.3.8.1-.3.2-.5.3-.8.1-.3.2-.5.4-.7l3.4-6.6c.1-.1.1-.2.2-.3.1-.1.1-.1.2-.1h2.9v13H141v-7.5c0-.4 0-.8.1-1.2l-3.5 6.7c-.1.2-.3.4-.4.5-.2.1-.4.2-.6.2h-.4c-.2 0-.4-.1-.6-.2-.2-.1-.3-.3-.4-.5l-3.5-6.8c0 .2 0 .4.1.6v8.2H129V10.3h2.9c.1 0 .1.1.2.1.1.1.1.2.2.3l3.4 6.7c.1.2.2.5.3.7zm19.3-7.8v2.3h-5.4v3.1h4.1V18h-4.1v3.1h5.4v2.3h-8.4V10.3h8.4z"/></g><g class="st1"><path class="st2" d="M65.3 45.4h-2.4c-.3 0-.5-.1-.7-.2-.2-.1-.3-.3-.4-.5l-.8-2.3h-5l-.8 2.3c-.1.2-.2.3-.4.5-.2.1-.4.2-.6.2H52l5.1-13.1h3.1l5.1 13.1zm-8.4-5h3.6l-1.2-3.6c-.1-.2-.2-.5-.3-.8s-.2-.6-.3-1c-.1.4-.2.7-.3 1s-.2.6-.3.8l-1.2 3.6zm8.4-8.1h2.6c.3 0 .5.1.7.2s.3.3.3.5l1.8 6.8c.1.2.1.5.2.7.1.2.1.5.1.8.1-.3.1-.5.2-.8.1-.2.1-.5.2-.7l2.1-6.8c.1-.2.2-.3.3-.5.2-.1.4-.2.6-.2h.9c.3 0 .5.1.7.2.2.1.3.3.4.5l2.1 6.8c.1.2.1.4.2.7.1.2.1.5.2.8 0-.3.1-.5.1-.8.1-.2.1-.5.2-.7L81 33c0-.2.2-.3.3-.5.1-.2.4-.2.6-.2h2.4l-4 13.1h-2.8L75 37.3c0-.1-.1-.3-.1-.4 0-.1-.1-.3-.1-.5 0 .2-.1.3-.1.5s-.1.3-.1.4l-2.5 8.1h-2.8l-4-13.1zm29.7 0v2.3h-5.4v3.1h4.1V40h-4.1v3.1H95v2.3h-8.4V32.3H95zm10 2.7c-.1.1-.2.3-.3.3s-.2.1-.4.1c-.1 0-.3 0-.4-.1-.2-.1-.3-.2-.5-.3-.2-.1-.4-.2-.7-.3s-.6-.1-.9-.1c-.6 0-1 .1-1.3.4-.3.2-.4.6-.4 1 0 .3.1.5.3.7.2.2.4.3.7.5l.9.3c.4.1.7.2 1.1.4.4.1.7.3 1.1.5.4.2.7.4.9.7.3.3.5.6.7 1s.3.9.3 1.4c0 .6-.1 1.2-.3 1.7s-.5 1-.9 1.4-.9.7-1.5.9c-.6.2-1.2.3-2 .3-.4 0-.8 0-1.2-.1-.4-.1-.8-.2-1.2-.4-.4-.2-.8-.3-1.1-.5-.3-.2-.7-.4-.9-.7l.9-1.4.3-.3c.1-.1.2-.1.4-.1s.4.1.5.2c.2.1.4.2.6.4.2.1.5.3.8.4.3.1.7.2 1.1.2.6 0 1-.1 1.3-.4s.5-.6.5-1.2c0-.3-.1-.6-.3-.7-.2-.2-.4-.4-.7-.5l-.9-.3c-.3-.1-.7-.2-1.1-.3s-.7-.3-1.1-.4c-.3-.2-.7-.4-.9-.7-.2-.3-.5-.6-.7-1s-.3-.9-.3-1.5c0-.5.1-1 .3-1.4.2-.5.5-.9.9-1.3s.9-.7 1.4-.9c.6-.2 1.2-.3 1.9-.3.4 0 .8 0 1.2.1.4.1.7.2 1.1.3.3.1.7.3 1 .4.3.2.6.4.8.6l-1 1zm16.4 3.8c0 .9-.2 1.8-.5 2.6s-.8 1.5-1.4 2.1-1.3 1.1-2.1 1.4-1.8.5-2.8.5-1.9-.2-2.8-.5c-.8-.3-1.6-.8-2.2-1.4-.6-.6-1.1-1.3-1.4-2.1-.3-.8-.5-1.7-.5-2.6s.2-1.8.5-2.6.8-1.5 1.4-2.1c.6-.6 1.3-1.1 2.2-1.4.8-.3 1.8-.5 2.8-.5s1.9.2 2.8.5 1.6.8 2.1 1.4c.6.6 1.1 1.3 1.4 2.1.3.8.5 1.7.5 2.6zm-3.1 0c0-.6-.1-1.2-.3-1.8-.2-.5-.4-1-.7-1.3-.3-.3-.7-.6-1.2-.8-.5-.2-1-.3-1.6-.3s-1.1.1-1.6.3c-.5.2-.8.5-1.2.8-.4.3-.6.8-.7 1.3-.2.5-.3 1.1-.3 1.8s.1 1.2.3 1.8c.2.5.4 1 .7 1.3.3.4.7.6 1.2.8.5.2 1 .3 1.6.3s1.1-.1 1.6-.3c.5-.2.8-.5 1.2-.8.3-.4.6-.8.7-1.3.2-.5.3-1.1.3-1.8zm12.6 1.3c.1.2.2.5.3.8.1-.3.2-.5.3-.8.1-.3.2-.5.4-.7l3.4-6.6c.1-.1.1-.2.2-.3.1-.1.1-.1.2-.1h2.9v13h-2.7v-7.5c0-.4 0-.8.1-1.2l-3.5 6.7c-.1.2-.3.4-.4.5-.2.1-.4.2-.6.2h-.5c-.2 0-.4-.1-.6-.2-.2-.1-.3-.3-.4-.5l-3.5-6.8c0 .2 0 .4.1.6v8.2h-2.7V32.3h2.9c.1 0 .1.1.2.1.1.1.1.2.2.3l3.4 6.7c0 .2.2.5.3.7zm19.3-7.8v2.3h-5.4v3.1h4.1V40h-4.1v3.1h5.4v2.3h-8.4V32.3h8.4zM160.4 43h4.9v2.4h-7.9V32.3h3V43zm19.5-4.2c0 .9-.2 1.8-.5 2.6s-.8 1.5-1.4 2.1c-.6.6-1.3 1.1-2.1 1.4s-1.8.5-2.8.5-2-.2-2.8-.5c-.8-.3-1.6-.8-2.2-1.4-.6-.6-1.1-1.3-1.4-2.1-.3-.8-.5-1.7-.5-2.6s.2-1.8.5-2.6.8-1.5 1.4-2.1c.6-.6 1.3-1.1 2.2-1.4s1.8-.5 2.8-.5 1.9.2 2.8.5c.8.3 1.6.8 2.1 1.4.6.6 1.1 1.3 1.4 2.1.3.8.5 1.7.5 2.6zm-3.1 0c0-.6-.1-1.2-.3-1.8-.2-.5-.4-1-.7-1.3-.3-.3-.7-.6-1.2-.8-.5-.2-1-.3-1.6-.3s-1.1.1-1.6.3c-.5.2-.8.5-1.2.8-.4.3-.6.8-.7 1.3-.2.5-.3 1.1-.3 1.8s.1 1.2.3 1.8c.2.5.4 1 .7 1.3.3.4.7.6 1.2.8.5.2 1 .3 1.6.3s1.1-.1 1.6-.3c.5-.2.8-.5 1.2-.8.3-.4.6-.8.7-1.3.2-.5.3-1.1.3-1.8zm11.7 4.4c.4 0 .8 0 1.1-.1l.9-.3v-2h-1.3c-.2 0-.3-.1-.5-.2-.1-.1-.2-.2-.2-.4v-1.7h4.7V44c-.3.2-.7.5-1 .6-.4.2-.8.3-1.2.4s-.8.2-1.3.3-1 .1-1.5.1c-1 0-1.8-.2-2.7-.5-.8-.3-1.5-.8-2.1-1.4-.6-.6-1.1-1.3-1.4-2.1-.3-.8-.5-1.7-.5-2.7s.2-1.9.5-2.7c.3-.8.8-1.5 1.4-2.1.6-.6 1.3-1.1 2.2-1.4.9-.3 1.8-.5 2.9-.5.5 0 1.1 0 1.5.1.4.1.9.2 1.3.4s.8.3 1.1.6c.3.2.6.5.9.7l-.9 1.3-.3.3c-.1.1-.2.1-.4.1s-.4-.1-.6-.2c-.2-.1-.5-.3-.7-.4s-.4-.2-.7-.3c-.2-.1-.5-.1-.7-.1h-.8c-.6 0-1.1.1-1.5.3-.5.2-.8.5-1.2.9s-.6.8-.7 1.3c-.2.5-.3 1.1-.3 1.7 0 .7.1 1.3.3 1.9.2.5.5 1 .8 1.4s.7.7 1.2.9c.5.2 1.2.3 1.7.3zm20.6-4.4c0 .9-.2 1.8-.5 2.6s-.8 1.5-1.4 2.1c-.6.6-1.3 1.1-2.1 1.4s-1.8.5-2.8.5-2-.2-2.8-.5c-.8-.3-1.6-.8-2.2-1.4-.6-.6-1.1-1.3-1.4-2.1-.3-.8-.5-1.7-.5-2.6s.2-1.8.5-2.6.8-1.5 1.4-2.1c.6-.6 1.3-1.1 2.2-1.4s1.8-.5 2.8-.5 1.9.2 2.8.5c.8.3 1.6.8 2.1 1.4.6.6 1.1 1.3 1.4 2.1.3.8.5 1.7.5 2.6zm-3.1 0c0-.6-.1-1.2-.3-1.8-.2-.5-.4-1-.7-1.3-.3-.3-.7-.6-1.2-.8-.5-.2-1-.3-1.6-.3s-1.1.1-1.6.3c-.5.2-.8.5-1.2.8-.4.3-.6.8-.7 1.3-.2.5-.3 1.1-.3 1.8s.1 1.2.3 1.8c.2.5.4 1 .7 1.3.3.4.7.6 1.2.8.5.2 1 .3 1.6.3s1.1-.1 1.6-.3c.5-.2.8-.5 1.2-.8.3-.4.6-.8.7-1.3.2-.5.3-1.1.3-1.8z"/></g><path d="M13 11h-3v34h3V11zm5 0v34h6V11h-6zM5 11H3v34h2V11zm24 0v34h8V11h-8z" fill="none" stroke="#ffcc01" stroke-width="2"/></svg>